{
	"accessors":[{
		"bufferView":0,
		"type":"SCALAR",
		"componentType":5123,
		"count":1200,
		"byteOffset":0,
		"min":[0],
		"max":[1199]
	},
	{
		"bufferView":1,
		"type":"VEC3",
		"componentType":5126,
		"count":1200,
		"byteOffset":0,
		"min":[-256.0,
		-128.0,
		-128.0],
		"max":[256.0,
		128.0,
		128.0]
	},
	{
		"bufferView":1,
		"type":"VEC3",
		"componentType":5126,
		"count":1200,
		"byteOffset":12,
		"min":[-0.616101861000061,
		-0.9972823858261108,
		0.0],
		"max":[0.616101861000061,
		0.9972823858261108,
		1.0]
	},
	{
		"bufferView":1,
		"type":"VEC2",
		"componentType":5126,
		"count":1200,
		"byteOffset":24,
		"min":[0.0,
		0.0],
		"max":[1.0,
		1.0]
	}],
	"asset":{
		"version":"2.0",
		"generator":"Maxon Cinema 4D 2025.1.1 (#200000219)"
	},
	"scenes":[{
		"nodes":[0]
	}],
	"nodes":[{
		"name":"平面",
		"translation":[0.0,
		0.0,
		0.0],
		"mesh":0,
		"rotation":[0.7071067690849304,
		0.0,
		0.0,
		-0.7071067690849304],
		"scale":[1.0,
		1.0,
		1.0]
	}],
	"meshes":[{
		"primitives":[{
			"attributes":{
				"POSITION":1,
				"NORMAL":2,
				"TEXCOORD_0":3
			},
			"indices":0
		}],
		"name":"平面"
	}],
	"bufferViews":[{
		"buffer":0,
		"byteOffset":0,
		"byteLength":2400,
		"target":34963
	},
	{
		"buffer":0,
		"byteOffset":2400,
		"byteLength":38400,
		"target":34962,
		"byteStride":32
	}],
	"buffers":[{
		"uri":"data:application/octet-stream;base64,",
		"byteLength":40800
	}]
}